<svg version="1.1" id="Layer_1" xmlns="http://www.w3.org/2000/svg" xmlns:xlink="http://www.w3.org/1999/xlink" x="0px" y="0px"
	 width="100%" viewBox="0 0 262 309" enable-background="new 0 0 262 309" xml:space="preserve">
<path fill="#FEFFFE" opacity="1.000000" stroke="none" 
	d="
M183.000000,0.999999 
	C209.656357,1.000000 236.312698,1.000000 262.984528,1.000000 
	C262.984528,103.949860 262.984528,206.899719 262.984528,309.924805 
	C175.750626,309.924805 88.501167,309.924805 1.125856,309.924805 
	C1.125856,207.123871 1.125856,104.247528 1.125856,1.000000 
	C58.020359,1.000000 115.041519,1.000000 172.379318,1.353660 
	C169.510788,2.611919 166.209061,3.229971 163.160309,4.469966 
	C148.791641,10.314013 137.840546,20.681511 127.235519,31.985355 
	C124.216682,35.208572 121.472382,38.273640 118.430695,41.521431 
	C115.347855,44.995358 112.562401,48.286564 109.479752,51.750721 
	C106.119408,55.614796 103.056259,59.305920 99.691711,63.142456 
	C96.201996,67.171875 93.013695,71.055870 89.526878,75.075027 
	C87.321571,77.535599 85.414787,79.861000 83.238228,82.385223 
	C81.592728,84.286171 80.217003,85.988304 78.538094,87.845093 
	C76.408333,90.294746 74.581764,92.589737 72.457321,95.026566 
	C69.410980,98.434792 66.662521,101.701187 63.597103,105.074326 
	C61.118191,107.937294 58.956234,110.693535 56.484886,113.647263 
	C53.978863,116.514137 51.782234,119.183510 49.314095,122.002899 
	C47.769283,123.771584 46.495983,125.390251 44.935341,127.196617 
	C41.741570,130.866852 38.835136,134.349396 35.630024,137.992752 
	C32.174862,141.991760 29.018383,145.829956 25.560860,149.833649 
	C18.967194,157.349243 12.674576,164.699341 5.720616,172.821915 
	C16.314720,171.074158 25.675884,169.576843 35.019600,167.977615 
	C50.041058,165.406631 65.050987,162.768280 80.493843,160.202423 
	C95.613754,157.776245 110.305611,155.306046 125.403343,152.881485 
	C135.769333,151.283966 145.760406,149.803802 155.674805,147.920074 
	C159.832550,147.130096 164.798462,147.841125 167.721207,142.996887 
	C169.274933,141.213120 170.560516,139.583786 172.147461,137.780579 
	C174.146637,135.473816 175.844482,133.340927 177.809692,131.031403 
	C180.822189,127.270844 183.567337,123.686897 186.589203,119.936310 
	C188.623520,117.286591 190.381119,114.803513 192.434540,112.125809 
	C194.229324,109.651123 195.728271,107.371048 197.513596,104.924248 
	C198.861557,102.838387 199.923141,100.919250 201.159668,98.704605 
	C202.925583,96.014610 204.516556,93.620125 206.398041,91.020798 
	C208.862793,86.565613 211.037003,82.315254 213.486450,77.854309 
	C215.213333,73.772903 216.664993,69.902084 218.373016,65.774101 
	C219.407486,62.344982 220.185593,59.173027 221.130585,55.624622 
	C221.661728,51.540310 222.025986,47.832447 222.523193,43.794640 
	C222.212585,28.756088 215.190536,17.707573 202.956085,10.221653 
	C196.747604,6.422859 189.679489,4.029002 183.000000,0.999999 
M93.884697,199.622345 
	C92.770500,201.031982 91.656303,202.441620 90.021957,204.241776 
	C87.660210,207.782715 85.298470,211.323639 82.386063,215.281616 
	C80.516792,218.727264 78.647522,222.172913 76.221321,226.079437 
	C74.536064,230.386932 72.850807,234.694443 70.674736,239.633347 
	C70.138123,242.755325 69.601509,245.877304 68.672043,249.711548 
	C69.390396,255.495407 70.108749,261.279266 70.833519,267.804382 
	C78.436043,287.544037 100.446533,300.590057 120.681183,296.842590 
	C133.875443,294.398956 145.136688,287.725494 155.918747,278.915192 
	C161.067322,274.321838 166.215897,269.728485 171.953262,264.874237 
	C174.687164,262.028290 177.421066,259.182373 180.795822,256.030762 
	C183.752060,252.650604 186.708298,249.270462 190.254776,245.567917 
	C193.251663,241.743652 196.248550,237.919388 199.861557,233.830811 
	C202.763000,230.502747 205.664444,227.174698 209.094788,223.437057 
	C210.732574,221.292328 212.370361,219.147598 214.597183,216.763931 
	C215.416519,215.551422 216.235855,214.338913 217.647491,212.796021 
	C221.454819,207.871414 225.262146,202.946808 229.673019,197.733429 
	C232.147568,194.572769 234.622101,191.412109 237.708267,187.941483 
	C244.492584,179.484726 251.276917,171.027969 258.701111,161.773621 
	C232.336533,166.536255 207.097672,171.095535 181.037994,175.814621 
	C176.468170,176.542084 171.877548,177.159683 167.333038,178.020752 
	C158.875183,179.623276 150.444214,181.367615 141.170715,182.967728 
	C128.981659,185.008987 116.772987,186.944992 104.625481,189.209152 
	C102.877022,189.535034 101.423119,191.441238 99.231285,192.933990 
	C97.539780,194.956024 95.848274,196.978073 93.884697,199.622345 
z"/>
<path fill="#09B533" opacity="1.000000" stroke="none" 
	d="
M127.510056,31.827209 
	C137.840546,20.681511 148.791641,10.314013 163.160309,4.469966 
	C166.209061,3.229971 169.510788,2.611919 172.847977,1.353660 
	C176.030594,1.000000 179.061188,1.000000 182.545898,0.999999 
	C189.679489,4.029002 196.747604,6.422859 202.956085,10.221653 
	C215.190536,17.707573 222.212585,28.756088 222.060074,43.760395 
	C212.149933,42.932819 202.831879,41.841709 193.522827,40.678322 
	C181.282898,39.148643 169.042831,37.616104 156.816452,35.982914 
	C147.037109,34.676594 137.278091,33.218140 127.510056,31.827209 
z"/>
<path fill="#078024" opacity="1.000000" stroke="none" 
	d="
M99.832901,192.616119 
	C101.423119,191.441238 102.877022,189.535034 104.625481,189.209152 
	C116.772987,186.944992 128.981659,185.008987 141.663437,183.378296 
	C146.707291,184.857925 151.214783,186.193817 155.817627,186.946747 
	C170.437347,189.338226 185.087753,191.544601 199.735886,193.759109 
	C209.505295,195.236069 219.291046,196.604950 229.069473,198.022186 
	C225.262146,202.946808 221.454819,207.871414 217.174133,212.617355 
	C216.029587,211.988556 215.404770,211.248062 214.680191,211.132385 
	C205.725708,209.702972 196.758408,208.353104 187.790985,207.005508 
	C173.120026,204.800842 158.452515,202.572006 143.772125,200.431732 
	C133.172791,198.886444 122.530624,197.619308 111.957520,195.917679 
	C107.845367,195.255875 103.870369,193.741913 99.832901,192.616119 
z"/>
<path fill="#09AA30" opacity="1.000000" stroke="none" 
	d="
M171.364487,265.135132 
	C166.215897,269.728485 161.067322,274.321838 155.176086,278.974182 
	C150.539642,278.352814 146.657104,277.598267 142.750046,277.005280 
	C128.098297,274.781403 113.451965,272.514679 98.776894,270.454254 
	C89.484764,269.149628 80.145325,268.181946 70.827103,267.063171 
	C70.108749,261.279266 69.390396,255.495407 69.267883,249.408371 
	C70.815163,249.387650 71.748795,249.794144 72.720741,249.933731 
	C84.633659,251.644577 96.553497,253.307114 108.468834,255.001144 
	C117.771835,256.323761 127.093117,257.537231 136.366394,259.044556 
	C148.053635,260.944244 159.700317,263.093536 171.364487,265.135132 
z"/>
<path fill="#068E27" opacity="1.000000" stroke="none" 
	d="
M82.936729,214.864578 
	C85.298470,211.323639 87.660210,207.782715 90.704674,204.113708 
	C100.338943,205.520203 109.271606,207.177185 118.246338,208.561508 
	C132.780991,210.803391 147.339966,212.888855 161.894775,214.998245 
	C176.122574,217.060242 190.367325,219.008881 204.575760,221.195007 
	C206.007889,221.415359 207.240601,222.931732 208.565872,223.846634 
	C205.664444,227.174698 202.763000,230.502747 199.129288,233.930115 
	C190.269913,232.688080 182.160690,231.224396 174.011658,230.033173 
	C160.647232,228.079590 147.248611,226.360916 133.880051,224.434540 
	C121.813774,222.695831 109.737915,220.987961 97.728531,218.907166 
	C92.714966,218.038498 87.862465,216.240189 82.936729,214.864578 
z"/>
<path fill="#05671D" opacity="1.000000" stroke="none" 
	d="
M35.928707,137.831940 
	C38.835136,134.349396 41.741570,130.866852 45.320137,127.257446 
	C54.618313,128.420303 63.230919,129.809891 71.873970,130.973297 
	C81.667068,132.291504 91.489326,133.391876 101.295486,134.614441 
	C112.902199,136.061478 124.508469,137.512833 136.108917,139.008972 
	C146.561188,140.357010 157.005341,141.768066 167.453064,143.151321 
	C164.798462,147.841125 159.832550,147.130096 155.674805,147.920074 
	C145.760406,149.803802 135.769333,151.283966 125.320770,152.522400 
	C121.224564,151.355011 117.646355,150.383698 114.003654,149.867844 
	C101.927940,148.157776 89.836533,146.552139 77.736771,145.020004 
	C66.283859,143.569778 54.795132,142.389526 43.363327,140.795319 
	C40.797272,140.437485 38.402393,138.852158 35.928707,137.831940 
z"/>
<path fill="#09B533" opacity="1.000000" stroke="none" 
	d="
M70.830307,267.433777 
	C80.145325,268.181946 89.484764,269.149628 98.776894,270.454254 
	C113.451965,272.514679 128.098297,274.781403 142.750046,277.005280 
	C146.657104,277.598267 150.539642,278.352814 154.860336,279.070648 
	C145.136688,287.725494 133.875443,294.398956 120.681183,296.842590 
	C100.446533,300.590057 78.436043,287.544037 70.830307,267.433777 
z"/>
<path fill="#07952A" opacity="1.000000" stroke="none" 
	d="
M213.211212,78.064896 
	C211.037003,82.315254 208.862793,86.565613 206.177185,90.694427 
	C200.195633,89.672012 194.741592,88.654938 189.252167,87.892776 
	C174.740463,85.877953 160.220062,83.922462 145.690842,82.038010 
	C127.075310,79.623566 108.447769,77.301651 89.825401,74.939873 
	C93.013695,71.055870 96.201996,67.171875 100.052750,63.300285 
	C104.774010,64.028503 108.814590,64.878021 112.895111,65.434692 
	C124.515907,67.020004 136.149277,68.515297 147.784805,69.989937 
	C157.617294,71.236076 167.460770,72.395180 177.297455,73.608574 
	C189.269775,75.085388 201.240067,76.578720 213.211212,78.064896 
z"/>
<path fill="#089E2C" opacity="1.000000" stroke="none" 
	d="
M213.486450,77.854309 
	C201.240067,76.578720 189.269775,75.085388 177.297455,73.608574 
	C167.460770,72.395180 157.617294,71.236076 147.784805,69.989937 
	C136.149277,68.515297 124.515907,67.020004 112.895111,65.434692 
	C108.814590,64.878021 104.774010,64.028503 100.354156,63.154873 
	C103.056259,59.305920 106.119408,55.614796 109.712669,52.093727 
	C114.615509,52.934723 118.978775,53.676430 123.362885,54.262131 
	C133.004257,55.550171 142.654053,56.776031 152.304367,57.996090 
	C161.956436,59.216362 171.611130,60.416431 181.268616,61.593143 
	C193.549225,63.089466 205.833786,64.553375 218.116653,66.031265 
	C216.664993,69.902084 215.213333,73.772903 213.486450,77.854309 
z"/>
<path fill="#089E2C" opacity="1.000000" stroke="none" 
	d="
M71.165558,239.001938 
	C72.850807,234.694443 74.536064,230.386932 76.727051,226.179626 
	C80.895142,227.185501 84.512985,228.390640 88.227882,228.942902 
	C101.445389,230.907776 114.709518,232.557846 127.930717,234.499222 
	C146.698761,237.255081 165.453690,240.105179 184.185608,243.094360 
	C186.111603,243.401703 187.842896,244.929077 189.664536,245.890320 
	C186.708298,249.270462 183.752060,252.650604 180.264862,255.845306 
	C178.870346,255.174393 178.054565,254.398956 177.135971,254.247635 
	C166.210037,252.447693 155.280563,250.661835 144.328552,249.029648 
	C131.094589,247.057373 117.845276,245.183960 104.589226,243.365326 
	C93.457970,241.838211 82.307510,240.451065 71.165558,239.001938 
z"/>
<path fill="#067822" opacity="1.000000" stroke="none" 
	d="
M186.312500,120.102951 
	C183.567337,123.686897 180.822189,127.270844 177.406128,130.875549 
	C169.893631,129.885284 163.060440,128.813141 156.208786,127.875847 
	C141.667496,125.886597 127.129311,123.865936 112.566116,122.048309 
	C97.994522,120.229630 83.374237,118.791473 68.818832,116.858681 
	C64.731827,116.315971 60.798237,114.617889 56.794277,113.449768 
	C58.956234,110.693535 61.118191,107.937294 64.011826,105.132729 
	C70.622429,105.815544 76.503357,106.530922 82.379845,107.281113 
	C94.625938,108.844421 106.864899,110.464516 119.115913,111.987946 
	C128.595123,113.166695 138.091064,114.210312 147.574417,115.356499 
	C160.489670,116.917480 173.400040,118.518883 186.312500,120.102951 
z"/>
<path fill="#07952A" opacity="1.000000" stroke="none" 
	d="
M189.959656,245.729126 
	C187.842896,244.929077 186.111603,243.401703 184.185608,243.094360 
	C165.453690,240.105179 146.698761,237.255081 127.930717,234.499222 
	C114.709518,232.557846 101.445389,230.907776 88.227882,228.942902 
	C84.512985,228.390640 80.895142,227.185501 77.005524,225.949188 
	C78.647522,222.172913 80.516792,218.727264 82.661392,215.073090 
	C87.862465,216.240189 92.714966,218.038498 97.728531,218.907166 
	C109.737915,220.987961 121.813774,222.695831 133.880051,224.434540 
	C147.248611,226.360916 160.647232,228.079590 174.011658,230.033173 
	C182.160690,231.224396 190.269913,232.688080 198.821228,234.062256 
	C196.248550,237.919388 193.251663,241.743652 189.959656,245.729126 
z"/>
<path fill="#078024" opacity="1.000000" stroke="none" 
	d="
M186.589218,119.936317 
	C173.400040,118.518883 160.489670,116.917480 147.574417,115.356499 
	C138.091064,114.210312 128.595123,113.166695 119.115913,111.987946 
	C106.864899,110.464516 94.625938,108.844421 82.379845,107.281113 
	C76.503357,106.530922 70.622429,105.815544 64.328781,105.025986 
	C66.662521,101.701187 69.410980,98.434792 72.839958,95.190254 
	C84.261650,96.807861 94.980743,98.576172 105.749802,99.954063 
	C118.173279,101.543633 130.650955,102.704842 143.086380,104.207062 
	C155.511261,105.708015 167.933624,107.260887 180.313034,109.089317 
	C184.326447,109.682098 188.200760,111.216652 192.138702,112.320427 
	C190.381119,114.803513 188.623520,117.286591 186.589218,119.936317 
z"/>
<path fill="#09AA30" opacity="1.000000" stroke="none" 
	d="
M127.235519,31.985355 
	C137.278091,33.218140 147.037109,34.676594 156.816452,35.982914 
	C169.042831,37.616104 181.282898,39.148643 193.522827,40.678322 
	C202.831879,41.841709 212.149933,42.932819 221.927124,44.090336 
	C222.025986,47.832447 221.661728,51.540310 220.709991,55.623001 
	C209.801254,54.654419 199.484512,53.274990 189.157471,51.977528 
	C178.338959,50.618317 167.512573,49.320927 156.685837,48.028221 
	C147.988708,46.989788 139.250565,46.226952 130.601303,44.885853 
	C126.557449,44.258839 122.680618,42.554672 118.728088,41.338711 
	C121.472382,38.273640 124.216682,35.208572 127.235519,31.985355 
z"/>
<path fill="#08A12D" opacity="1.000000" stroke="none" 
	d="
M70.920151,239.317642 
	C82.307510,240.451065 93.457970,241.838211 104.589226,243.365326 
	C117.845276,245.183960 131.094589,247.057373 144.328552,249.029648 
	C155.280563,250.661835 166.210037,252.447693 177.135971,254.247635 
	C178.054565,254.398956 178.870346,255.174393 179.944427,255.998138 
	C177.421066,259.182373 174.687164,262.028290 171.658875,265.004700 
	C159.700317,263.093536 148.053635,260.944244 136.366394,259.044556 
	C127.093117,257.537231 117.771835,256.323761 108.468834,255.001144 
	C96.553497,253.307114 84.633659,251.644577 72.720741,249.933731 
	C71.748795,249.794144 70.815163,249.387650 69.464310,249.052246 
	C69.601509,245.877304 70.138123,242.755325 70.920151,239.317642 
z"/>
<path fill="#08A52E" opacity="1.000000" stroke="none" 
	d="
M118.430695,41.521431 
	C122.680618,42.554672 126.557449,44.258839 130.601303,44.885853 
	C139.250565,46.226952 147.988708,46.989788 156.685837,48.028221 
	C167.512573,49.320927 178.338959,50.618317 189.157471,51.977528 
	C199.484512,53.274990 209.801254,54.654419 220.543106,55.999443 
	C220.185593,59.173027 219.407486,62.344982 218.373016,65.774101 
	C205.833786,64.553375 193.549225,63.089466 181.268616,61.593143 
	C171.611130,60.416431 161.956436,59.216362 152.304367,57.996090 
	C142.654053,56.776031 133.004257,55.550171 123.362885,54.262131 
	C118.978775,53.676430 114.615509,52.934723 110.009872,51.920776 
	C112.562401,48.286564 115.347855,44.995358 118.430695,41.521431 
z"/>
<path fill="#068E27" opacity="1.000000" stroke="none" 
	d="
M89.526878,75.075027 
	C108.447769,77.301651 127.075310,79.623566 145.690842,82.038010 
	C160.220062,83.922462 174.740463,85.877953 189.252167,87.892776 
	C194.741592,88.654938 200.195633,89.672012 205.886658,90.899261 
	C204.516556,93.620125 202.925583,96.014610 200.757233,98.653778 
	C191.201019,97.599205 182.238617,96.169914 173.239319,95.032570 
	C161.113678,93.500122 148.953094,92.246498 136.819580,90.773590 
	C124.203094,89.242050 111.575546,87.764503 99.004799,85.910973 
	C93.769951,85.139091 88.669540,83.455452 83.508003,82.186401 
	C85.414787,79.861000 87.321571,77.535599 89.526878,75.075027 
z"/>
<path fill="#05601C" opacity="1.000000" stroke="none" 
	d="
M35.630024,137.992752 
	C38.402393,138.852158 40.797272,140.437485 43.363327,140.795319 
	C54.795132,142.389526 66.283859,143.569778 77.736771,145.020004 
	C89.836533,146.552139 101.927940,148.157776 114.003654,149.867844 
	C117.646355,150.383698 121.224564,151.355011 124.914886,152.476776 
	C110.305611,155.306046 95.613754,157.776245 80.278015,159.887268 
	C78.259117,159.017288 76.921677,158.232300 75.503273,158.037827 
	C60.453346,155.974396 45.383438,154.055267 30.341898,151.934219 
	C28.773245,151.713013 27.351704,150.448563 25.861906,149.668152 
	C29.018383,145.829956 32.174862,141.991760 35.630024,137.992752 
z"/>
<path fill="#067822" opacity="1.000000" stroke="none" 
	d="
M229.371246,197.877808 
	C219.291046,196.604950 209.505295,195.236069 199.735886,193.759109 
	C185.087753,191.544601 170.437347,189.338226 155.817627,186.946747 
	C151.214783,186.193817 146.707291,184.857925 142.079102,183.420883 
	C150.444214,181.367615 158.875183,179.623276 167.333038,178.020752 
	C171.877548,177.159683 176.468170,176.542084 181.617020,176.095642 
	C186.428955,177.405289 190.618118,178.696899 194.903534,179.409927 
	C204.996490,181.089264 215.203262,182.155579 225.222260,184.173553 
	C229.228668,184.980484 234.462601,183.173508 237.096649,188.251465 
	C234.622101,191.412109 232.147568,194.572769 229.371246,197.877808 
z"/>
<path fill="#057220" opacity="1.000000" stroke="none" 
	d="
M56.484886,113.647270 
	C60.798237,114.617889 64.731827,116.315971 68.818832,116.858681 
	C83.374237,118.791473 97.994522,120.229630 112.566116,122.048309 
	C127.129311,123.865936 141.667496,125.886597 156.208786,127.875847 
	C163.060440,128.813141 169.893631,129.885284 177.138763,131.052170 
	C175.844482,133.340927 174.146637,135.473816 171.753265,137.736877 
	C165.044418,136.911621 159.050385,135.805542 153.013748,135.031952 
	C140.269379,133.398804 127.502823,131.938721 114.745186,130.409180 
	C102.476059,128.938187 90.194588,127.562378 77.941368,125.969139 
	C68.471153,124.737770 59.036221,123.234993 49.585602,121.852882 
	C51.782234,119.183510 53.978863,116.514137 56.484886,113.647270 
z"/>
<path fill="#097223" opacity="1.000000" stroke="none" 
	d="
M237.402451,188.096466 
	C234.462601,183.173508 229.228668,184.980484 225.222260,184.173553 
	C215.203262,182.155579 204.996490,181.089264 194.903534,179.409927 
	C190.618118,178.696899 186.428955,177.405289 182.027435,176.015732 
	C207.097672,171.095535 232.336533,166.536255 258.701111,161.773621 
	C251.276917,171.027969 244.492584,179.484726 237.402451,188.096466 
z"/>
<path fill="#068625" opacity="1.000000" stroke="none" 
	d="
M192.434540,112.125809 
	C188.200760,111.216652 184.326447,109.682098 180.313034,109.089317 
	C167.933624,107.260887 155.511261,105.708015 143.086380,104.207062 
	C130.650955,102.704842 118.173279,101.543633 105.749802,99.954063 
	C94.980743,98.576172 84.261650,96.807861 73.137833,95.048416 
	C74.581764,92.589737 76.408333,90.294746 78.723633,88.209564 
	C79.861588,88.905434 80.465096,89.731277 81.167046,89.825768 
	C89.494972,90.946831 97.836494,91.967545 106.176613,92.997124 
	C115.821281,94.187744 125.469276,95.351326 135.113663,96.544167 
	C147.047958,98.020241 158.993576,99.414444 170.908554,101.033646 
	C179.702820,102.228767 188.455811,103.727516 197.227203,105.090973 
	C195.728271,107.371048 194.229324,109.651123 192.434540,112.125809 
z"/>
<path fill="#09591C" opacity="1.000000" stroke="none" 
	d="
M25.560860,149.833649 
	C27.351704,150.448563 28.773245,151.713013 30.341898,151.934219 
	C45.383438,154.055267 60.453346,155.974396 75.503273,158.037827 
	C76.921677,158.232300 78.259117,159.017288 79.849960,159.843262 
	C65.050987,162.768280 50.041058,165.406631 35.019600,167.977615 
	C25.675884,169.576843 16.314720,171.074158 5.720616,172.821915 
	C12.674576,164.699341 18.967194,157.349243 25.560860,149.833649 
z"/>
<path fill="#068625" opacity="1.000000" stroke="none" 
	d="
M99.532089,192.775055 
	C103.870369,193.741913 107.845367,195.255875 111.957520,195.917679 
	C122.530624,197.619308 133.172791,198.886444 143.772125,200.431732 
	C158.452515,202.572006 173.120026,204.800842 187.790985,207.005508 
	C196.758408,208.353104 205.725708,209.702972 214.680191,211.132385 
	C215.404770,211.248062 216.029587,211.988556 216.877975,212.782532 
	C216.235855,214.338913 215.416519,215.551422 213.879242,216.880692 
	C211.041534,216.665710 208.924576,216.314819 206.801575,216.005386 
	C194.220383,214.171539 181.638260,212.343903 169.055511,210.520813 
	C156.309326,208.674042 143.548462,206.923080 130.819092,204.967087 
	C118.581627,203.086700 106.376251,200.997543 94.156769,199.000122 
	C95.848274,196.978073 97.539780,194.956024 99.532089,192.775055 
z"/>
<path fill="#068926" opacity="1.000000" stroke="none" 
	d="
M197.513596,104.924248 
	C188.455811,103.727516 179.702820,102.228767 170.908554,101.033646 
	C158.993576,99.414444 147.047958,98.020241 135.113663,96.544167 
	C125.469276,95.351326 115.821281,94.187744 106.176613,92.997124 
	C97.836494,91.967545 89.494972,90.946831 81.167046,89.825768 
	C80.465096,89.731277 79.861588,88.905434 79.026810,88.054901 
	C80.217003,85.988304 81.592728,84.286171 83.238228,82.385223 
	C88.669540,83.455452 93.769951,85.139091 99.004799,85.910973 
	C111.575546,87.764503 124.203094,89.242050 136.819580,90.773590 
	C148.953094,92.246498 161.113678,93.500122 173.239319,95.032570 
	C182.238617,96.169914 191.201019,97.599205 200.582275,98.949280 
	C199.923141,100.919250 198.861557,102.838387 197.513596,104.924248 
z"/>
<path fill="#066E1F" opacity="1.000000" stroke="none" 
	d="
M49.314095,122.002899 
	C59.036221,123.234993 68.471153,124.737770 77.941368,125.969139 
	C90.194588,127.562378 102.476059,128.938187 114.745186,130.409180 
	C127.502823,131.938721 140.269379,133.398804 153.013748,135.031952 
	C159.050385,135.805542 165.044418,136.911621 171.451935,137.910767 
	C170.560516,139.583786 169.274933,141.213120 167.721207,142.996887 
	C157.005341,141.768066 146.561188,140.357010 136.108917,139.008972 
	C124.508469,137.512833 112.902199,136.061478 101.295486,134.614441 
	C91.489326,133.391876 81.667068,132.291504 71.873970,130.973297 
	C63.230919,129.809891 54.618313,128.420303 45.607475,127.069748 
	C46.495983,125.390251 47.769283,123.771584 49.314095,122.002899 
z"/>
<path fill="#068926" opacity="1.000000" stroke="none" 
	d="
M94.020737,199.311234 
	C106.376251,200.997543 118.581627,203.086700 130.819092,204.967087 
	C143.548462,206.923080 156.309326,208.674042 169.055511,210.520813 
	C181.638260,212.343903 194.220383,214.171539 206.801575,216.005386 
	C208.924576,216.314819 211.041534,216.665710 213.584717,217.000168 
	C212.370361,219.147598 210.732574,221.292328 208.830322,223.641846 
	C207.240601,222.931732 206.007889,221.415359 204.575760,221.195007 
	C190.367325,219.008881 176.122574,217.060242 161.894775,214.998245 
	C147.339966,212.888855 132.780991,210.803391 118.246338,208.561508 
	C109.271606,207.177185 100.338943,205.520203 90.964752,203.918442 
	C91.656303,202.441620 92.770500,201.031982 94.020737,199.311234 
z"/>
</svg>